<?xml version="1.0" encoding="utf-8"?>
<!-- Generator: Adobe Illustrator 28.0.0, SVG Export Plug-In . SVG Version: 6.00 Build 0)  -->
<svg version="1.1" id="Layer_1" xmlns="http://www.w3.org/2000/svg" xmlns:xlink="http://www.w3.org/1999/xlink" x="0px" y="0px"
	 viewBox="0 0 68 96" style="enable-background:new 0 0 68 96;" xml:space="preserve">
<style type="text/css">
	.st0{fill:url(#SVGID_1_);}
	.st1{fill:url(#SVGID_00000129921466119890060130000012463983519076292244_);}
	.st2{fill:url(#SVGID_00000060004909792868056180000017815698834659609732_);}
	.st3{fill:url(#SVGID_00000030444558272418691460000014845644685211880382_);}
	.st4{fill:url(#SVGID_00000070116335085784457550000007185753746235425461_);}
	.st5{fill:url(#SVGID_00000134932797315834389970000008140554115028294554_);}
	.st6{fill:none;}
	.st7{fill:url(#SVGID_00000136370289050219711450000016239881253380284604_);}
	.st8{fill:#F1582D;}
	.st9{fill:#3D8C99;}
	.st10{fill:url(#SVGID_00000121281495264759540880000004201726252481034175_);}
	.st11{opacity:0.5;fill:url(#SVGID_00000036247953317497579960000006013119122976001442_);enable-background:new    ;}
	.st12{fill:#45979F;}
	.st13{fill:url(#SVGID_00000182489071253676851920000001440688321950739076_);}
	.st14{opacity:0.5;fill:url(#SVGID_00000032611043063617656190000010486663235855749786_);enable-background:new    ;}
	.st15{fill:url(#SVGID_00000008137677329214192740000016283676225164981897_);}
	.st16{opacity:0.5;fill:url(#SVGID_00000125593866729984002670000003989533697406021532_);enable-background:new    ;}
	.st17{fill:#489BA4;}
	.st18{fill:url(#SVGID_00000060010635744927988460000013841091221550057905_);}
	.st19{fill:url(#SVGID_00000179640710975481983410000002578799933733170611_);}
</style>
<image style="overflow:visible;" width="147" height="200" xlink:href="card bg.jpg"  transform="matrix(0.48 0 0 0.48 -1.28 0)">
</image>
<linearGradient id="SVGID_1_" gradientUnits="userSpaceOnUse" x1="23.535" y1="81.309" x2="23.535" y2="63.682" gradientTransform="matrix(1 0 0 -1 0 98)">
	<stop  offset="0" style="stop-color:#E5C320"/>
	<stop  offset="0.153" style="stop-color:#DEBA22"/>
	<stop  offset="0.373" style="stop-color:#CEA626"/>
	<stop  offset="0.634" style="stop-color:#B88927"/>
	<stop  offset="0.924" style="stop-color:#9D6626"/>
	<stop  offset="1" style="stop-color:#955D25"/>
</linearGradient>
<path class="st0" d="M27.73,17.5c1.48,0.8,2.62,1.91,3.42,3.32c0.8,1.42,1.2,3.03,1.2,4.84c0,1.79-0.4,3.4-1.2,4.84
	c-0.8,1.44-1.94,2.57-3.42,3.39s-3.2,1.24-5.17,1.24h-7.84V16.3h7.84C24.52,16.3,26.25,16.7,27.73,17.5z M25.19,28.77
	c0.78-0.73,1.17-1.76,1.17-3.11s-0.39-2.38-1.17-3.11s-1.83-1.09-3.16-1.09h-1.41v8.4h1.41C23.35,29.86,24.41,29.5,25.19,28.77z"/>
<linearGradient id="SVGID_00000083792555835540318110000009539078808272769975_" gradientUnits="userSpaceOnUse" x1="43.62" y1="81.882" x2="43.62" y2="62.527" gradientTransform="matrix(1 0 0 -1 0 98)">
	<stop  offset="0" style="stop-color:#E5C320"/>
	<stop  offset="0.153" style="stop-color:#DEBA22"/>
	<stop  offset="0.373" style="stop-color:#CEA626"/>
	<stop  offset="0.634" style="stop-color:#B88927"/>
	<stop  offset="0.924" style="stop-color:#9D6626"/>
	<stop  offset="1" style="stop-color:#955D25"/>
</linearGradient>
<path style="fill:url(#SVGID_00000083792555835540318110000009539078808272769975_);" d="M38.76,34.06
	c-1.464-0.814-2.681-2.01-3.52-3.46c-0.87-1.47-1.3-3.13-1.3-4.97c0-1.84,0.43-3.5,1.3-4.97c0.84-1.444,2.057-2.633,3.52-3.44
	c1.48-0.82,3.11-1.24,4.88-1.24s3.39,0.41,4.87,1.24c1.47,0.82,2.64,1.97,3.5,3.44c0.86,1.47,1.29,3.13,1.29,4.97
	c0,1.84-0.43,3.5-1.29,4.97c-0.839,1.447-2.051,2.642-3.51,3.46c-1.48,0.83-3.1,1.25-4.85,1.25C41.86,35.31,40.24,34.9,38.76,34.06z
	 M46.35,28.68c0.64-0.75,0.96-1.77,0.96-3.04c0-1.29-0.32-2.32-0.96-3.07s-1.54-1.13-2.71-1.13c-1.19,0-2.1,0.38-2.74,1.13
	c-0.64,0.75-0.96,1.78-0.96,3.07c0,1.28,0.32,2.29,0.96,3.04s1.55,1.13,2.74,1.13C44.81,29.81,45.71,29.43,46.35,28.68z"/>
<linearGradient id="SVGID_00000165202147835072181460000000054553113417676724_" gradientUnits="userSpaceOnUse" x1="23.705" y1="58.314" x2="23.705" y2="41.644" gradientTransform="matrix(1 0 0 -1 0 98)">
	<stop  offset="0" style="stop-color:#E5C320"/>
	<stop  offset="0.153" style="stop-color:#DEBA22"/>
	<stop  offset="0.373" style="stop-color:#CEA626"/>
	<stop  offset="0.634" style="stop-color:#B88927"/>
	<stop  offset="0.924" style="stop-color:#9D6626"/>
	<stop  offset="1" style="stop-color:#955D25"/>
</linearGradient>
<path style="fill:url(#SVGID_00000165202147835072181460000000054553113417676724_);" d="M21.24,38.5v10.6
	c0,0.87,0.19,1.56,0.57,2.06c0.38,0.51,1,0.76,1.85,0.76s1.48-0.25,1.89-0.76c0.41-0.5,0.61-1.19,0.61-2.06V38.5h5.88v10.6
	c0,1.79-0.37,3.32-1.12,4.59c-0.709,1.239-1.776,2.236-3.06,2.86c-1.29,0.64-2.74,0.96-4.33,0.96c-1.6,0-3.01-0.32-4.24-0.96
	s-2.19-1.59-2.88-2.84c-0.69-1.26-1.04-2.79-1.04-4.6V38.5H21.24z"/>
<linearGradient id="SVGID_00000078006126352298256900000003888490718332558231_" gradientUnits="userSpaceOnUse" x1="43.615" y1="59.319" x2="43.615" y2="41.267" gradientTransform="matrix(1 0 0 -1 0 98)">
	<stop  offset="0" style="stop-color:#E5C320"/>
	<stop  offset="0.153" style="stop-color:#DEBA22"/>
	<stop  offset="0.373" style="stop-color:#CEA626"/>
	<stop  offset="0.634" style="stop-color:#B88927"/>
	<stop  offset="0.924" style="stop-color:#9D6626"/>
	<stop  offset="1" style="stop-color:#955D25"/>
</linearGradient>
<path style="fill:url(#SVGID_00000078006126352298256900000003888490718332558231_);" d="M52.64,57.32h-5.9l-6.25-9.46v9.46h-5.9
	V38.5h5.9l6.25,9.62V38.5h5.9V57.32z"/>
<linearGradient id="SVGID_00000014591780840283535310000000561930945063195576_" gradientUnits="userSpaceOnUse" x1="23.535" y1="36.808" x2="23.535" y2="19.182" gradientTransform="matrix(1 0 0 -1 0 98)">
	<stop  offset="0" style="stop-color:#E5C320"/>
	<stop  offset="0.153" style="stop-color:#DEBA22"/>
	<stop  offset="0.373" style="stop-color:#CEA626"/>
	<stop  offset="0.634" style="stop-color:#B88927"/>
	<stop  offset="0.924" style="stop-color:#9D6626"/>
	<stop  offset="1" style="stop-color:#955D25"/>
</linearGradient>
<path style="fill:url(#SVGID_00000014591780840283535310000000561930945063195576_);" d="M27.73,62.2c1.48,0.8,2.62,1.91,3.42,3.32
	c0.8,1.42,1.2,3.03,1.2,4.84c0,1.79-0.4,3.4-1.2,4.84c-0.8,1.44-1.94,2.57-3.42,3.39s-3.2,1.24-5.17,1.24h-7.84V61.01h7.84
	C24.52,61.01,26.25,61.41,27.73,62.2z M25.19,73.48c0.78-0.73,1.17-1.76,1.17-3.11s-0.39-2.38-1.17-3.11s-1.83-1.09-3.16-1.09h-1.41
	v8.4h1.41C23.35,74.57,24.41,74.2,25.19,73.48z"/>
<linearGradient id="SVGID_00000043416509409601418850000008397202885208770219_" gradientUnits="userSpaceOnUse" x1="43.62" y1="37.686" x2="43.62" y2="18.331" gradientTransform="matrix(1 0 0 -1 0 98)">
	<stop  offset="0" style="stop-color:#E5C320"/>
	<stop  offset="0.153" style="stop-color:#DEBA22"/>
	<stop  offset="0.373" style="stop-color:#CEA626"/>
	<stop  offset="0.634" style="stop-color:#B88927"/>
	<stop  offset="0.924" style="stop-color:#9D6626"/>
	<stop  offset="1" style="stop-color:#955D25"/>
</linearGradient>
<path style="fill:url(#SVGID_00000043416509409601418850000008397202885208770219_);" d="M38.76,78.77
	c-1.464-0.814-2.681-2.01-3.52-3.46c-0.87-1.47-1.3-3.13-1.3-4.97c0-1.84,0.43-3.5,1.3-4.97c0.84-1.444,2.057-2.633,3.52-3.44
	c1.48-0.82,3.11-1.24,4.88-1.24s3.39,0.41,4.87,1.24c1.47,0.82,2.64,1.97,3.5,3.44c0.86,1.47,1.29,3.13,1.29,4.97
	c0,1.84-0.43,3.5-1.29,4.97c-0.839,1.447-2.051,2.642-3.51,3.46c-1.48,0.83-3.1,1.25-4.85,1.25C41.86,80.02,40.24,79.6,38.76,78.77z
	 M46.35,73.38c0.64-0.75,0.96-1.77,0.96-3.04c0-1.29-0.32-2.32-0.96-3.07s-1.54-1.13-2.71-1.13c-1.19,0-2.1,0.38-2.74,1.13
	c-0.64,0.75-0.96,1.78-0.96,3.07c0,1.28,0.32,2.29,0.96,3.04s1.55,1.13,2.74,1.13C44.81,74.51,45.71,74.14,46.35,73.38z"/>
<circle class="st6" cx="30.22" cy="87.89" r="1.09"/>
<radialGradient id="SVGID_00000182525959808866587630000017088439074725745032_" cx="1997.004" cy="-467.852" r="1.088" gradientTransform="matrix(1 0 0 -1 -1966.78 -379.966)" gradientUnits="userSpaceOnUse">
	<stop  offset="0" style="stop-color:#F1582D"/>
	<stop  offset="0.508" style="stop-color:#FAB490"/>
	<stop  offset="1" style="stop-color:#F1582D"/>
</radialGradient>
<circle style="fill:url(#SVGID_00000182525959808866587630000017088439074725745032_);" cx="30.22" cy="87.89" r="1.09"/>
<circle class="st8" cx="30.22" cy="87.89" r="0.81"/>
<path class="st8" d="M28.79,87.89c0,0.6-0.49,1.09-1.09,1.09h-1.09V86.8h1.09C28.31,86.8,28.79,87.29,28.79,87.89z"/>
<path class="st9" d="M41.39,87.89c0,0.6-0.49,1.09-1.09,1.09s-1.09-0.49-1.09-1.09s0.49-1.09,1.09-1.09S41.39,87.29,41.39,87.89z"/>
<linearGradient id="SVGID_00000012442100334012113850000013869719936938323135_" gradientUnits="userSpaceOnUse" x1="1999.52" y1="-466.766" x2="1999.52" y2="-468.946" gradientTransform="matrix(1 0 0 -1 -1966.78 -379.966)">
	<stop  offset="0" style="stop-color:#2D6F7A"/>
	<stop  offset="0.122" style="stop-color:#367A85"/>
	<stop  offset="0.35" style="stop-color:#428893"/>
	<stop  offset="0.615" style="stop-color:#4A919C"/>
	<stop  offset="1" style="stop-color:#4C94A0"/>
</linearGradient>
<path style="fill:url(#SVGID_00000012442100334012113850000013869719936938323135_);" d="M33.83,86.8v1.09
	c0,0.6-0.49,1.09-1.09,1.09s-1.09-0.49-1.09-1.09V86.8H33.83z"/>
<linearGradient id="SVGID_00000183224665841728443720000001001992218798461866_" gradientUnits="userSpaceOnUse" x1="2000.61" y1="-467.986" x2="1998.4301" y2="-467.986" gradientTransform="matrix(1 0 0 -1 -1966.78 -379.966)">
	<stop  offset="0" style="stop-color:#31737E"/>
	<stop  offset="0.5" style="stop-color:#EAEAE8"/>
	<stop  offset="1" style="stop-color:#317480"/>
</linearGradient>
<path style="opacity:0.5;fill:url(#SVGID_00000183224665841728443720000001001992218798461866_);enable-background:new    ;" d="
	M33.83,87.07v0.81c0,0.6-0.49,1.09-1.09,1.09s-1.09-0.49-1.09-1.09v-0.81H33.83z"/>
<path class="st12" d="M33.55,87.07v0.81c0,0.45-0.36,0.81-0.81,0.81s-0.81-0.36-0.81-0.81v-0.81H33.55z"/>
<linearGradient id="SVGID_00000026874891949979382650000005489843974067669394_" gradientUnits="userSpaceOnUse" x1="-2343.7461" y1="714.142" x2="-2343.7461" y2="711.962" gradientTransform="matrix(-1 0 0 1 -2308.4861 -625.162)">
	<stop  offset="0" style="stop-color:#2D6F7A"/>
	<stop  offset="0.122" style="stop-color:#367A85"/>
	<stop  offset="0.35" style="stop-color:#428893"/>
	<stop  offset="0.615" style="stop-color:#4A919C"/>
	<stop  offset="1" style="stop-color:#4C94A0"/>
</linearGradient>
<path style="fill:url(#SVGID_00000026874891949979382650000005489843974067669394_);" d="M34.17,88.98v-1.09
	c0-0.6,0.49-1.09,1.09-1.09s1.09,0.49,1.09,1.09v1.09H34.17z"/>
<linearGradient id="SVGID_00000150814480613417342350000004842508253129417121_" gradientUnits="userSpaceOnUse" x1="-2342.656" y1="712.912" x2="-2344.8362" y2="712.912" gradientTransform="matrix(-1 0 0 1 -2308.4861 -625.162)">
	<stop  offset="0" style="stop-color:#31737E"/>
	<stop  offset="0.5" style="stop-color:#EAEAE8"/>
	<stop  offset="1" style="stop-color:#317480"/>
</linearGradient>
<path style="opacity:0.5;fill:url(#SVGID_00000150814480613417342350000004842508253129417121_);enable-background:new    ;" d="
	M34.17,88.7v-0.81c0-0.6,0.49-1.09,1.09-1.09s1.09,0.49,1.09,1.09v0.81H34.17z"/>
<path class="st12" d="M34.45,88.7v-0.81c0-0.45,0.36-0.81,0.81-0.81s0.81,0.36,0.81,0.81v0.81C36.07,88.7,34.45,88.7,34.45,88.7z"/>
<linearGradient id="SVGID_00000054967845651644898500000001672723703488389813_" gradientUnits="userSpaceOnUse" x1="-981.3069" y1="-1831.722" x2="-981.3069" y2="-1833.9021" gradientTransform="matrix(6.123234e-17 -1 -1 -6.123234e-17 -1795.0349 -893.4169)">
	<stop  offset="0" style="stop-color:#2D6F7A"/>
	<stop  offset="0.122" style="stop-color:#367A85"/>
	<stop  offset="0.35" style="stop-color:#428893"/>
	<stop  offset="0.615" style="stop-color:#4A919C"/>
	<stop  offset="1" style="stop-color:#4C94A0"/>
</linearGradient>
<path style="fill:url(#SVGID_00000054967845651644898500000001672723703488389813_);" d="M36.69,86.8h1.09
	c0.6,0,1.09,0.49,1.09,1.09s-0.49,1.09-1.09,1.09h-1.09V86.8z"/>
<linearGradient id="SVGID_00000070817884629050454170000003012086272517297836_" gradientUnits="userSpaceOnUse" x1="-980.2169" y1="-1832.9449" x2="-982.3969" y2="-1832.9449" gradientTransform="matrix(6.123234e-17 -1 -1 -6.123234e-17 -1795.0349 -893.4169)">
	<stop  offset="0" style="stop-color:#31737E"/>
	<stop  offset="0.5" style="stop-color:#EAEAE8"/>
	<stop  offset="1" style="stop-color:#317480"/>
</linearGradient>
<path style="opacity:0.5;fill:url(#SVGID_00000070817884629050454170000003012086272517297836_);enable-background:new    ;" d="
	M36.96,86.8h0.81c0.6,0,1.09,0.49,1.09,1.09s-0.49,1.09-1.09,1.09h-0.81V86.8z"/>
<path class="st17" d="M36.96,87.07h0.81c0.45,0,0.81,0.36,0.81,0.81s-0.36,0.81-0.81,0.81h-0.81
	C36.96,88.69,36.96,87.07,36.96,87.07z"/>
<linearGradient id="SVGID_00000003078394341968085090000011269225568715147438_" gradientUnits="userSpaceOnUse" x1="2003.467" y1="-467.856" x2="2005.6471" y2="-467.856" gradientTransform="matrix(1 0 0 -1 -1966.78 -379.966)">
	<stop  offset="0" style="stop-color:#3D8C99;stop-opacity:0"/>
	<stop  offset="0.122" style="stop-color:#3D8C99;stop-opacity:0.122"/>
	<stop  offset="1" style="stop-color:#3D8C99"/>
</linearGradient>
<path style="fill:url(#SVGID_00000003078394341968085090000011269225568715147438_);" d="M38.87,87.89c0,0.6-0.49,1.09-1.09,1.09
	h-1.09V86.8h1.09C38.38,86.8,38.87,87.29,38.87,87.89z"/>
<linearGradient id="SVGID_00000159435611964504722640000014640979036524872885_" gradientUnits="userSpaceOnUse" x1="1998.031" y1="-467.856" x2="1995.855" y2="-467.856" gradientTransform="matrix(1 0 0 -1 -1966.78 -379.966)">
	<stop  offset="0" style="stop-color:#DE5631;stop-opacity:0"/>
	<stop  offset="0.132" style="stop-color:#E25730;stop-opacity:0.132"/>
	<stop  offset="0.546" style="stop-color:#EC582E;stop-opacity:0.546"/>
	<stop  offset="1" style="stop-color:#F1582D"/>
</linearGradient>
<circle style="fill:url(#SVGID_00000159435611964504722640000014640979036524872885_);" cx="30.22" cy="87.89" r="1.09"/>
</svg>
