<?xml version="1.0" encoding="utf-8"?>
<!-- Generator: Adobe Illustrator 28.0.0, SVG Export Plug-In . SVG Version: 6.00 Build 0)  -->
<svg version="1.1" xmlns="http://www.w3.org/2000/svg" xmlns:xlink="http://www.w3.org/1999/xlink" x="0px" y="0px"
	 viewBox="0 0 100 100" style="enable-background:new 0 0 100 100;" xml:space="preserve">
<style type="text/css">
	.st0{display:none;}
	.st1{display:inline;fill:#FAF4E2;}
	.st2{display:inline;}
	.st3{fill-rule:evenodd;clip-rule:evenodd;}
	.st4{fill-rule:evenodd;clip-rule:evenodd;fill:#206432;}
	.st5{fill-rule:evenodd;clip-rule:evenodd;fill:#8ED8F8;}
	.st6{fill-rule:evenodd;clip-rule:evenodd;fill:#D87AB1;}
	.st7{fill-rule:evenodd;clip-rule:evenodd;fill:#1A5592;}
	.st8{fill-rule:evenodd;clip-rule:evenodd;fill:#914A21;}
	.st9{fill-rule:evenodd;clip-rule:evenodd;fill:#ED2024;}
	.st10{fill-rule:evenodd;clip-rule:evenodd;fill:#ABABAB;}
	.st11{fill-rule:evenodd;clip-rule:evenodd;fill:#A5CE3C;}
	.st12{fill-rule:evenodd;clip-rule:evenodd;fill:#000001;}
	.st13{fill-rule:evenodd;clip-rule:evenodd;fill:#F8D210;}
	.st14{fill-rule:evenodd;clip-rule:evenodd;fill:#5F2D85;}
	.st15{fill-rule:evenodd;clip-rule:evenodd;fill:#F58220;}
	.st16{font-family:'Poppins-Regular';}
	.st17{font-size:13.6905px;}
	.st18{display:inline;fill:#5F2D85;}
	.st19{fill:#5F2D85;}
	.st20{fill:#FFFFFF;}
	.st21{display:none;fill:#D87AB1;}
	.st22{display:none;fill-rule:evenodd;clip-rule:evenodd;fill:#D87AB1;}
	.st23{fill:#ABABAB;}
	.st24{display:inline;fill-rule:evenodd;clip-rule:evenodd;fill:#A5CE3C;}
	.st25{display:inline;fill:#A5CE3C;}
	.st26{fill:#A5CE3C;}
	.st27{display:inline;fill-rule:evenodd;clip-rule:evenodd;fill:#F8D210;}
	.st28{fill:#F8D210;}
	.st29{display:inline;fill-rule:evenodd;clip-rule:evenodd;fill:#914A21;}
	.st30{fill:#914A21;}
	.st31{display:inline;fill:#F58220;}
	.st32{fill:#F58220;}
	.st33{fill:#8ED8F8;}
	.st34{display:inline;fill-rule:evenodd;clip-rule:evenodd;fill:#8ED8F8;}
	.st35{fill:#ED2024;}
	.st36{display:inline;fill-rule:evenodd;clip-rule:evenodd;fill:#ED2024;}
	.st37{display:inline;fill-rule:evenodd;clip-rule:evenodd;fill:#1A5592;}
	.st38{display:inline;fill:#1A5592;}
	.st39{display:inline;fill-rule:evenodd;clip-rule:evenodd;fill:#206432;}
	.st40{fill:#206432;}
</style>
<g id="Layer_2" class="st0">
	<rect class="st1" width="100" height="100"/>
</g>
<g id="Layer_1">
	<g class="st0">
		<g class="st2">
			<polygon class="st3" points="50.34,88.55 21.72,60.25 22.7,60.25 49.9,87.19 			"/>
			<polygon class="st3" points="50.19,6.41 21.72,34.88 22.7,34.88 49.76,7.78 			"/>
			<polygon class="st3" points="78.28,34.82 78.28,59.99 77.6,58.91 77.6,35.69 			"/>
			<polygon class="st4" points="65.09,34.84 50.19,6.41 78.28,34.82 			"/>
			<polygon class="st5" points="67.61,39.64 71.72,47.47 78.28,34.82 			"/>
			<polygon class="st6" points="71.72,47.47 67.67,55.28 78.28,59.99 			"/>
			<polygon class="st7" points="65.2,60.05 50.33,60.09 50.3,47.51 67.67,55.28 			"/>
			<polygon class="st8" points="65.09,34.84 67.61,39.64 50.3,47.51 50.27,34.85 			"/>
			<polygon class="st9" points="32.69,55.42 28.47,47.5 32.59,39.7 50.3,47.51 			"/>
			<polygon class="st10" points="35.15,34.86 32.59,39.7 21.72,34.88 			"/>
			<polygon class="st11" points="35.25,60.2 21.72,60.26 32.69,55.42 			"/>
			<polygon class="st12" points="28.47,47.5 21.72,60.26 21.72,34.88 			"/>
			<polygon class="st13" points="50.19,6.41 35.15,34.86 50.27,34.82 			"/>
			<polygon class="st14" points="65.2,60.05 50.34,88.55 78.28,59.99 			"/>
			<polygon class="st15" points="35.25,60.2 50.34,88.55 50.33,60.12 			"/>
		</g>
		<g>
			<text transform="matrix(1 0 0 1 21.3119 106.3818)" class="st2 st16 st17">SHAMAN</text>
		</g>
	</g>
	<g>
		<g>
			<g class="st0">
				<text transform="matrix(1 0 0 1 32.9748 106.3799)" class="st18 st16 st17">HERA</text>
			</g>
			<g>
				<path class="st19" d="M43.43,6.41v13.14c15.42,0,27.93,12.5,27.93,27.93c0,15.42-12.5,27.93-27.93,27.93v13.14
					c22.68,0,41.07-18.39,41.07-41.07C84.5,24.8,66.11,6.41,43.43,6.41z"/>
				<path class="st20" d="M57.39,47.48c0,7.71-6.25,13.96-13.96,13.96v13.96c15.42,0,27.93-12.5,27.93-27.93
					c0-15.42-12.5-27.93-27.93-27.93v13.96C51.14,33.52,57.39,39.77,57.39,47.48z"/>
				<path class="st19" d="M57.39,47.48c0-7.71-6.25-13.96-13.96-13.96v27.93C51.14,61.45,57.39,55.2,57.39,47.48z"/>
				<path class="st19" d="M15.5,47.48c0,15.42,12.5,27.93,27.93,27.93V61.45c-7.71,0-13.96-6.25-13.96-13.96
					c0-7.71,6.25-13.96,13.96-13.96V19.55C28,19.55,15.5,32.06,15.5,47.48z"/>
				<path class="st20" d="M29.46,47.48c0,7.71,6.25,13.96,13.96,13.96V33.52C35.72,33.52,29.46,39.77,29.46,47.48z"/>
			</g>
		</g>
	</g>
	<g>
		<text transform="matrix(1 0 0 1 35.4061 106.3799)" class="st21 st16 st17">ENKI</text>
		<path class="st22" d="M50,6.41C27.32,6.41,8.93,24.8,8.93,47.48c0,22.68,18.39,41.07,41.07,41.07c22.68,0,41.07-18.39,41.07-41.07
			C91.07,24.8,72.68,6.41,50,6.41z M37.04,65.35c0,1.17-0.95,2.12-2.12,2.12h-0.51c-1.17,0-2.12-0.95-2.12-2.12V29.62
			c0-1.17,0.95-2.12,2.12-2.12h0.51c1.17,0,2.12,0.95,2.12,2.12V65.35z"/>
	</g>
	<g class="st0">
		<g class="st2">
			<path class="st23" d="M62.87,33.38L62.87,33.38c0,5.59-1.7,10.77-4.61,15.08c-2.42,3.59-5.69,6.56-9.51,8.64
				c-3.82,2.08-8.2,3.26-12.86,3.26h0v28.2h55.17V33.38H62.87z"/>
			<path class="st23" d="M62.87,33.38c0-14.89-12.07-26.97-26.97-26.97S8.93,18.49,8.93,33.38S21,60.35,35.9,60.35V33.38H62.87z"/>
		</g>
		<text transform="matrix(1 0 0 1 29.9415 106.3818)" class="st23 st16 st17">MITRA</text>
	</g>
	<g class="st0">
		<rect x="40.87" y="47.48" class="st24" width="41.07" height="41.07"/>
		<polygon class="st24" points="40.87,6.41 40.87,47.48 18.06,47.48 		"/>
		<path class="st25" d="M40.87,10.46l37.02,37.02L40.87,84.5L22.11,47.48L40.87,10.46 M40.87,6.41L18.06,47.48l22.82,41.07
			l41.07-41.07L40.87,6.41L40.87,6.41z"/>
		<text transform="matrix(1 0 0 1 29.339 106.3818)" class="st26 st16 st17">SETNA</text>
	</g>
	<g class="st0">
		<path class="st27" d="M63.86,53.08c-8.5-17.43-11.79-34.5-13.08-46.67h-1.6c-1.33,12.19-4.66,29.25-13.16,46.67
			c-9.15,18.74-20.33,29.8-27.09,35.47c27.38,0,54.76,0,82.14,0C84.34,82.95,73.05,71.92,63.86,53.08z"/>
		<text transform="matrix(1 0 0 1 22.4259 106.3818)" class="st28 st16 st17">ASGARD</text>
	</g>
	<g class="st0">
		<polygon class="st29" points="72.8,33.78 50,88.55 27.2,33.78 50,6.41 		"/>
		<text transform="matrix(1 0 0 1 31.4816 106.3818)" class="st30 st16 st17">TITAN</text>
	</g>
	<g class="st0">
		<path class="st31" d="M67.13,26.56c-0.59-0.24-1.19-0.49-1.78-0.75c-6.49-2.82-12.75-6.93-14.87-19.4H50h-0.48
			c-2.12,12.47-8.38,16.58-14.87,19.4c-0.59,0.26-1.18,0.51-1.78,0.75c-9.63,4.28-16.1,12.04-16.1,20.92
			c0,8.89,6.47,16.65,16.1,20.93c0.59,0.24,1.18,0.49,1.77,0.75c6.49,2.82,12.75,6.93,14.87,19.4H50h0.48
			c2.12-12.47,8.38-16.58,14.87-19.4c0.59-0.26,1.18-0.51,1.77-0.75c9.64-4.28,16.1-12.04,16.1-20.93
			C83.22,38.6,76.76,30.84,67.13,26.56z M36.43,44.82H29.9v-6.53h6.53V44.82z"/>
		<text transform="matrix(1 0 0 1 31.6598 106.3818)" class="st32 st16 st17">LAOZI</text>
	</g>
	<g class="st0">
		<text transform="matrix(1 0 0 1 27.2511 106.3818)" class="st33 st16 st17">AHURA</text>
		<path class="st34" d="M50.58,6.41h-1.16C46.74,21.73,33.4,41.6,17.31,41.6v27.07c10.98,0,19.88,8.9,19.88,19.88H62.8
			c0-10.98,8.9-19.88,19.88-19.88V41.6C66.6,41.6,53.26,21.73,50.58,6.41z"/>
	</g>
	<g class="st0">
		<text transform="matrix(1 0 0 1 33.6916 106.3818)" class="st35 st16 st17">ARES</text>
		<path class="st36" d="M57.82,86.57c5.35,4.48,18.23,1.33,18.23-8.9c0-6.22-5.04-11.25-11.25-11.25c-4.72,0-8.76,2.94-10.43,7.07
			c-0.48-2.83-0.87-5.81-0.73-8.95C54.87,36.02,74.47,10.14,99,6.41c0,0-0.57,0,0,0C77.24,6.54,58.32,21.18,50.96,41.8
			c0.31-2.28,0.48-4.61,0.51-6.97C51.6,23.7,46.69,12.88,41.33,8.4C35.98,3.92,23.1,7.07,23.1,17.3c0,6.22,5.04,11.25,11.25,11.25
			c4.72,0,8.76-2.94,10.43-7.07c0.48,2.83,1.04,5.83,0.73,8.95C42.51,60.63,25.2,84.52,1,87.62c0,0,0.37-0.35,0,0
			c21.76,0,39.83-13.83,47.2-34.45c-0.31,2.28-0.48,4.61-0.51,6.97C47.55,71.27,52.47,82.09,57.82,86.57"/>
	</g>
	<g class="st0">
		<path class="st37" d="M53.71,9.29C51.47,7.44,50,6.41,50,6.41s-3.19,2.22-7.36,6.06c-1.05,0.97-2.16,2.04-3.3,3.21
			c-7.35,7.53-15.81,18.98-15.81,31.8c0,18.19,17.02,33.61,23.76,39.01c1.1-1.07,2.24-2.22,3.38-3.46
			c6.68-7.27,13.42-17.36,13.42-28.53c0-15.32-12.68-28.63-20.49-35.37c1.06-1.22,2.12-2.37,3.16-3.43
			c7.46,6.26,22.28,20.83,22.28,37.8c0,12.81-8.45,24.26-15.8,31.79c-1.14,1.17-2.26,2.25-3.31,3.22c0.04,0.03,0.07,0.05,0.07,0.05
			s1.47-1.03,3.71-2.88C61,79.65,76.47,64.83,76.47,47.48S61,15.31,53.71,9.29z M51.8,41.5v-2.33c16.1,15.59,0,29.9,0,29.9
			C65,53.31,51.8,41.5,51.8,41.5z"/>
		<g>
			<text transform="matrix(1 0 0 1 30.3175 106.3818)" class="st38 st16 st17">SHIVA</text>
		</g>
	</g>
	<g class="st0">
		<path class="st39" d="M83.15,14.48c-2.43-3.99-6.45-9.82-12.08-7.56c-2.43,0.97-4.23,3.24-5.69,5.18
			c-1.53,2.16-2.98,3.99-4.16,6.37c-3.26,6.69-7.22,18.35,0.14,23.97c6.18,4.75,14.37,2.37,19.36-2.59c1.04-1.08,1.6-1.73,2.5-2.7
			c9.99,11.66-4.1,25.37-11.31,29.37c-9.48,5.35-26.65,9.66-37.07,7.55c0.88-0.79,1.67-1.79,2.28-3.01
			c2.26-4.54,1.32-10.19-2.09-12.61c-3.42-2.42-8.02-0.7-10.28,3.85c-0.52,1.05-0.86,2.17-1.05,3.29c-0.02,0.06-0.03,0.13-0.04,0.2
			c0,0.03-0.01,0.05-0.02,0.08c-0.31,1.1-0.42,2.27-0.23,3.68c-2.08-0.97-5.62-5.07-6.45-7.34c-4.93-12.09,5.14-28.29,6.11-31.52
			c-1.6,0.97-2.43,1.73-4.23,2.91c-1.8,3.02-3.75,7.02-4.86,9.39C6.32,59.6,4.86,79.25,24.71,86.38
			c10.62,3.67,26.37,2.48,36.78-1.94c13.26-5.72,22.7-16.01,27.34-26.45C94.51,45.24,89.33,24.73,83.15,14.48z"/>
		<text transform="matrix(1 0 0 1 33.7619 106.3818)" class="st40 st16 st17">GAIA</text>
	</g>
</g>
</svg>
