<?xml version="1.0" encoding="utf-8"?>
<!-- Generator: Adobe Illustrator 28.0.0, SVG Export Plug-In . SVG Version: 6.00 Build 0)  -->
<svg version="1.1" id="Layer_1" xmlns="http://www.w3.org/2000/svg" xmlns:xlink="http://www.w3.org/1999/xlink" x="0px" y="0px"
	 viewBox="0 0 120 32" style="enable-background:new 0 0 120 32;" xml:space="preserve">
<style type="text/css">
	.st0{fill:url(#SVGID_1_);}
	.st1{fill:url(#SVGID_00000116217013875079102650000013776190192822338487_);}
	.st2{fill:#F1582D;}
	.st3{fill:#3D8C99;}
	.st4{fill:url(#SVGID_00000141423723796113856710000010018513985620245377_);}
	.st5{opacity:0.5;fill:url(#SVGID_00000132062961120987904350000009167677880475845256_);}
	.st6{fill:#45979F;}
	.st7{fill:url(#SVGID_00000005247478684722962830000011250597569068452494_);}
	.st8{opacity:0.5;fill:url(#SVGID_00000031923548603616928580000006990302745952738436_);}
	.st9{fill:url(#SVGID_00000173864192313732959010000015740362921864989088_);}
	.st10{opacity:0.5;fill:url(#SVGID_00000018220698316412734460000007833850893144775299_);}
	.st11{fill:#489BA4;}
	.st12{fill:url(#SVGID_00000181807260638848168930000015677496353327857064_);}
	.st13{fill:url(#SVGID_00000021117949047857053950000017788804990901212586_);}
</style>
<g>
	
		<linearGradient id="SVGID_1_" gradientUnits="userSpaceOnUse" x1="234.2082" y1="-619.446" x2="251.882" y2="-619.446" gradientTransform="matrix(1 0 0 1 -213.2542 635.4237)">
		<stop  offset="0" style="stop-color:#F1582D"/>
		<stop  offset="1" style="stop-color:#D25432"/>
	</linearGradient>
	<circle class="st0" cx="29.34" cy="15.98" r="8.84"/>
	
		<radialGradient id="SVGID_00000023981476464511968450000002293760361981920653_" cx="242.5921" cy="-619.446" r="8.8369" gradientTransform="matrix(1 0 0 1 -213.2542 635.4237)" gradientUnits="userSpaceOnUse">
		<stop  offset="0" style="stop-color:#F1582D"/>
		<stop  offset="0.5084" style="stop-color:#FAB490"/>
		<stop  offset="1" style="stop-color:#F1582D"/>
	</radialGradient>
	<circle style="fill:url(#SVGID_00000023981476464511968450000002293760361981920653_);" cx="29.34" cy="15.98" r="8.84"/>
	<g>
		<g>
			<circle class="st2" cx="29.29" cy="15.98" r="6.61"/>
		</g>
	</g>
	<path class="st2" d="M17.72,16L17.72,16c0,4.89-3.97,8.86-8.86,8.86H0V7.14h8.86C13.75,7.14,17.72,11.11,17.72,16z"/>
	<path class="st3" d="M120,16L120,16c0,4.89-3.97,8.86-8.86,8.86h0c-4.89,0-8.86-3.97-8.86-8.86v0c0-4.89,3.97-8.86,8.86-8.86h0
		C116.03,7.14,120,11.11,120,16z"/>
	
		<linearGradient id="SVGID_00000096737358338624603820000011040087376369339779_" gradientUnits="userSpaceOnUse" x1="263.0261" y1="-628.283" x2="263.0261" y2="-610.5645" gradientTransform="matrix(1 0 0 1 -213.2542 635.4237)">
		<stop  offset="0" style="stop-color:#2D6F7A"/>
		<stop  offset="0.1221" style="stop-color:#367A85"/>
		<stop  offset="0.3504" style="stop-color:#428893"/>
		<stop  offset="0.6154" style="stop-color:#4A919C"/>
		<stop  offset="1" style="stop-color:#4C94A0"/>
	</linearGradient>
	<path style="fill:url(#SVGID_00000096737358338624603820000011040087376369339779_);" d="M58.63,7.14V16
		c0,4.89-3.97,8.86-8.86,8.86h0c-4.89,0-8.86-3.97-8.86-8.86V7.14H58.63z"/>
	
		<linearGradient id="SVGID_00000146493025336420288800000017724376160863524524_" gradientUnits="userSpaceOnUse" x1="271.8853" y1="-618.2995" x2="254.1669" y2="-618.2995" gradientTransform="matrix(1 0 0 1 -213.2542 635.4237)">
		<stop  offset="0" style="stop-color:#31737E"/>
		<stop  offset="0.5" style="stop-color:#EAEAE8"/>
		<stop  offset="1" style="stop-color:#317480"/>
	</linearGradient>
	<path style="opacity:0.5;fill:url(#SVGID_00000146493025336420288800000017724376160863524524_);" d="M58.63,9.39V16
		c0,4.89-3.97,8.86-8.86,8.86h0c-4.89,0-8.86-3.97-8.86-8.86V9.39H58.63z"/>
	<g>
		<g>
			<path class="st6" d="M56.38,9.39V16c0,3.65-2.96,6.61-6.61,6.61h0c-3.65,0-6.61-2.96-6.61-6.61V9.39H56.38z"/>
		</g>
	</g>
	<g>
		
			<linearGradient id="SVGID_00000030479274430466042790000004825957194797398696_" gradientUnits="userSpaceOnUse" x1="-323.1877" y1="719.3682" x2="-323.1877" y2="737.0866" gradientTransform="matrix(-1 0 0 -1 -252.9596 744.2274)">
			<stop  offset="0" style="stop-color:#2D6F7A"/>
			<stop  offset="0.1221" style="stop-color:#367A85"/>
			<stop  offset="0.3504" style="stop-color:#428893"/>
			<stop  offset="0.6154" style="stop-color:#4A919C"/>
			<stop  offset="1" style="stop-color:#4C94A0"/>
		</linearGradient>
		<path style="fill:url(#SVGID_00000030479274430466042790000004825957194797398696_);" d="M61.37,24.86l0-8.86
			c0-4.89,3.97-8.86,8.86-8.86h0c4.89,0,8.86,3.97,8.86,8.86v8.86L61.37,24.86z"/>
		
			<linearGradient id="SVGID_00000025434737931012495280000004652733096161145996_" gradientUnits="userSpaceOnUse" x1="-314.3285" y1="729.3516" x2="-332.047" y2="729.3516" gradientTransform="matrix(-1 0 0 -1 -252.9596 744.2274)">
			<stop  offset="0" style="stop-color:#31737E"/>
			<stop  offset="0.5" style="stop-color:#EAEAE8"/>
			<stop  offset="1" style="stop-color:#317480"/>
		</linearGradient>
		<path style="opacity:0.5;fill:url(#SVGID_00000025434737931012495280000004652733096161145996_);" d="M61.37,22.61V16
			c0-4.89,3.97-8.86,8.86-8.86h0c4.89,0,8.86,3.97,8.86,8.86v6.61L61.37,22.61z"/>
		<g>
			<g>
				<path class="st6" d="M63.62,22.61V16c0-3.65,2.96-6.61,6.61-6.61h0c3.65,0,6.61,2.96,6.61,6.61v6.61L63.62,22.61z"/>
			</g>
		</g>
	</g>
	<g>
		
			<linearGradient id="SVGID_00000046302134554212944570000012051625785917652885_" gradientUnits="userSpaceOnUse" x1="433.9729" y1="149.334" x2="433.9729" y2="167.0525" gradientTransform="matrix(4.932300e-11 -1 1 4.932300e-11 -67.5088 449.9729)">
			<stop  offset="0" style="stop-color:#2D6F7A"/>
			<stop  offset="0.1221" style="stop-color:#367A85"/>
			<stop  offset="0.3504" style="stop-color:#428893"/>
			<stop  offset="0.6154" style="stop-color:#4A919C"/>
			<stop  offset="1" style="stop-color:#4C94A0"/>
		</linearGradient>
		<path style="fill:url(#SVGID_00000046302134554212944570000012051625785917652885_);" d="M81.83,7.14l8.86,0
			c4.89,0,8.86,3.97,8.86,8.86v0c0,4.89-3.97,8.86-8.86,8.86l-8.86,0L81.83,7.14z"/>
		
			<linearGradient id="SVGID_00000167361225481508364340000013865633371782781097_" gradientUnits="userSpaceOnUse" x1="442.8321" y1="159.3175" x2="425.1137" y2="159.3175" gradientTransform="matrix(4.932300e-11 -1 1 4.932300e-11 -67.5088 449.9729)">
			<stop  offset="0" style="stop-color:#31737E"/>
			<stop  offset="0.5" style="stop-color:#EAEAE8"/>
			<stop  offset="1" style="stop-color:#317480"/>
		</linearGradient>
		<path style="opacity:0.5;fill:url(#SVGID_00000167361225481508364340000013865633371782781097_);" d="M84.07,7.14l6.61,0
			c4.89,0,8.86,3.97,8.86,8.86v0c0,4.89-3.97,8.86-8.86,8.86l-6.61,0L84.07,7.14z"/>
		<g>
			<g>
				<path class="st11" d="M84.07,9.39l6.61,0c3.65,0,6.61,2.96,6.61,6.61v0c0,3.65-2.96,6.61-6.61,6.61l-6.61,0L84.07,9.39z"/>
			</g>
		</g>
	</g>
	
		<linearGradient id="SVGID_00000162326514118614752460000018021793437788519320_" gradientUnits="userSpaceOnUse" x1="295.0795" y1="-619.4237" x2="312.7979" y2="-619.4237" gradientTransform="matrix(1 0 0 1 -213.2542 635.4237)">
		<stop  offset="0" style="stop-color:#3D8C99;stop-opacity:0"/>
		<stop  offset="0.1216" style="stop-color:#3D8C99;stop-opacity:0.1216"/>
		<stop  offset="1" style="stop-color:#3D8C99"/>
	</linearGradient>
	<path style="fill:url(#SVGID_00000162326514118614752460000018021793437788519320_);" d="M99.54,16L99.54,16
		c0,4.89-3.97,8.86-8.86,8.86h-8.86V7.14h8.86C95.58,7.14,99.54,11.11,99.54,16z"/>
	
		<linearGradient id="SVGID_00000110452355511317469960000008625010776844069287_" gradientUnits="userSpaceOnUse" x1="250.9313" y1="-619.4458" x2="233.2576" y2="-619.4458" gradientTransform="matrix(1 0 0 1 -213.2542 635.4237)">
		<stop  offset="0" style="stop-color:#DE5631;stop-opacity:0"/>
		<stop  offset="0.1319" style="stop-color:#E25730;stop-opacity:0.1319"/>
		<stop  offset="0.5462" style="stop-color:#EC582E;stop-opacity:0.5462"/>
		<stop  offset="1" style="stop-color:#F1582D"/>
	</linearGradient>
	<circle style="fill:url(#SVGID_00000110452355511317469960000008625010776844069287_);" cx="29.29" cy="15.98" r="8.84"/>
</g>
</svg>
